<svg xmlns="http://www.w3.org/2000/svg" viewBox="0 0 64 64" role="img" aria-labelledby="title">
  <title id="title">Amami analytics</title>
  <defs>
    <clipPath id="rounded">
      <rect width="64" height="64" rx="13" />
    </clipPath>
  </defs>
  <g clip-path="url(#rounded)">
    <path fill="#e95443" d="M0 0h32v32H0z" />
    <path fill="#66c4ca" d="M32 0h32v32H32z" />
    <path fill="#66c4ca" d="M0 32h32v32H0z" />
    <path fill="#ffd45a" d="M32 32h32v32H32z" />
  </g>
  <rect x="9" y="11" width="46" height="42" rx="7" fill="#050706" />
  <path fill="#fffdf1" d="M13 22h38v26a4 4 0 0 1-4 4H17a4 4 0 0 1-4-4V22Z" />
  <circle cx="18" cy="16.5" r="2.8" fill="#e95443" />
  <circle cx="25" cy="16.5" r="2.8" fill="#ffd45a" />
  <path fill="#050706" d="M23 38a8.5 8.5 0 0 0-8.5 8.5V48h17v-1.5A8.5 8.5 0 0 0 23 38Z" />
  <circle cx="23" cy="30.5" r="6.4" fill="#050706" />
  <circle cx="23" cy="30.5" r="4.1" fill="#ffd45a" />
  <path fill="#050706" d="M34 46.5a1.6 1.6 0 0 1 1.6-1.6h15a1.6 1.6 0 1 1 0 3.2h-15a1.6 1.6 0 0 1-1.6-1.6Z" />
  <path fill="#ffd45a" d="M37 40.5a1.5 1.5 0 0 1 1.5-1.5H41a1.5 1.5 0 0 1 1.5 1.5v4.4H37v-4.4Zm8-5a1.5 1.5 0 0 1 1.5-1.5H49a1.5 1.5 0 0 1 1.5 1.5v9.4H45v-9.4Z" />
  <path d="m28.5 38 7-7 7 3.5 6-7.5" fill="none" stroke="#050706" stroke-linecap="round" stroke-linejoin="round" stroke-width="3.8" />
  <circle cx="28.5" cy="38" r="3" fill="#050706" />
  <circle cx="35.5" cy="31" r="3" fill="#050706" />
  <circle cx="48.5" cy="27" r="3.1" fill="#050706" />
</svg>
