<svg xmlns="http://www.w3.org/2000/svg" viewBox="0 0 64 64">
  <rect x="5" y="5" width="54" height="54" rx="5.5" fill="none" stroke="#000" stroke-width="3.5" />
  <path fill="#000" d="M10.5 5h43A5.5 5.5 0 0 1 59 10.5V18H5v-7.5A5.5 5.5 0 0 1 10.5 5Z" />
  <circle cx="21" cy="26" r="6.4" fill="none" stroke="#000" stroke-width="3.6" />
  <path fill="#000" d="M21 36c-7.1 0-12.8 5.7-12.8 12.8V52h25.6v-3.2C33.8 41.7 28.1 36 21 36Z" />
  <path d="m29 42 8.5-9.5 8 5L54 26M47 25.5 54 23v7.5M37 52h17" fill="none" stroke="#000" stroke-linecap="round" stroke-linejoin="round" stroke-width="4.4" />
</svg>
