<svg xmlns="http://www.w3.org/2000/svg" viewBox="0 0 64 64">
  <path d="M0 13C0 5.8 5.8 0 13 0h38c7.2 0 13 5.8 13 13v38c0 7.2-5.8 13-13 13H13C5.8 64 0 58.2 0 51V13Zm9 5v35h46V18H9Zm4 11v19h38V29H13Zm10 9a8.5 8.5 0 0 0-8.5 8.5V48h17v-1.5A8.5 8.5 0 0 0 23 38Zm5.5 0a3 3 0 0 0 4.2 0l3.3-3.3 5.2 2.6a3 3 0 0 0 3.7-.8l6-7.5a3 3 0 0 0-4.7-3.8l-4.5 5.6-4.9-2.4a3 3 0 0 0-3.5.6l-7 7a3 3 0 0 0 2.2 5Zm-5.5-14a6.5 6.5 0 1 0 0 13 6.5 6.5 0 0 0 0-13Zm12.6 20.9a1.6 1.6 0 1 0 0 3.2h15a1.6 1.6 0 1 0 0-3.2h-15Zm1.4-4.4v4.4h5.5v-4.4A1.5 1.5 0 0 0 41 39h-2.5a1.5 1.5 0 0 0-1.5 1.5Zm8-5v9.4h5.5v-9.4A1.5 1.5 0 0 0 49 34h-2.5a1.5 1.5 0 0 0-1.5 1.5Z" />
</svg>
